<svg width="320" height="320" viewBox="0 0 320 320" xmlns="http://www.w3.org/2000/svg" shape-rendering="crispEdges"><rect width="100%" height="100%" fill="#f6f7f9"/><rect width="80" height="10" x="120" y="0" fill="#adb1bf"/><rect width="30" height="10" x="90" y="10" fill="#adb1bf"/><rect width="80" height="10" x="120" y="10" fill="#cfd6e0"/><rect width="30" height="10" x="200" y="10" fill="#adb1bf"/><rect width="10" height="10" x="80" y="20" fill="#adb1bf"/><rect width="50" height="10" x="90" y="20" fill="#cfd6e0"/><rect width="30" height="10" x="140" y="20" fill="#e5eaf1"/><rect width="20" height="10" x="170" y="20" fill="#f6f5f3"/><rect width="10" height="10" x="190" y="20" fill="#e5eaf1"/><rect width="30" height="10" x="200" y="20" fill="#cfd6e0"/><rect width="10" height="10" x="230" y="20" fill="#adb1bf"/><rect width="20" height="10" x="60" y="30" fill="#adb1bf"/><rect width="50" height="10" x="80" y="30" fill="#cfd6e0"/><rect width="30" height="10" x="130" y="30" fill="#e5eaf1"/><rect width="40" height="10" x="160" y="30" fill="#f6f5f3"/><rect width="30" height="10" x="200" y="30" fill="#e5eaf1"/><rect width="10" height="10" x="230" y="30" fill="#cfd6e0"/><rect width="20" height="10" x="240" y="30" fill="#adb1bf"/><rect width="10" height="10" x="50" y="40" fill="#adb1bf"/><rect width="20" height="10" x="60" y="40" fill="#cfd6e0"/><rect width="20" height="10" x="80" y="40" fill="#e5eaf1"/><rect width="30" height="10" x="100" y="40" fill="#cfd6e0"/><rect width="30" height="10" x="130" y="40" fill="#e5eaf1"/><rect width="40" height="10" x="160" y="40" fill="#f6f5f3"/><rect width="40" height="10" x="200" y="40" fill="#e5eaf1"/><rect width="20" height="10" x="240" y="40" fill="#cfd6e0"/><rect width="10" height="10" x="260" y="40" fill="#adb1bf"/><rect width="10" height="10" x="40" y="50" fill="#adb1bf"/><rect width="20" height="10" x="50" y="50" fill="#cfd6e0"/><rect width="10" height="10" x="70" y="50" fill="#e5eaf1"/><rect width="10" height="10" x="80" y="50" fill="#f6f5f3"/><rect width="20" height="10" x="90" y="50" fill="#e5eaf1"/><rect width="20" height="10" x="110" y="50" fill="#cfd6e0"/><rect width="40" height="10" x="130" y="50" fill="#e5eaf1"/><rect width="20" height="10" x="170" y="50" fill="#f6f5f3"/><rect width="70" height="10" x="190" y="50" fill="#e5eaf1"/><rect width="10" height="10" x="260" y="50" fill="#cfd6e0"/><rect width="10" height="10" x="270" y="50" fill="#adb1bf"/><rect width="10" height="10" x="30" y="60" fill="#adb1bf"/><rect width="30" height="10" x="40" y="60" fill="#cfd6e0"/><rect width="40" height="10" x="70" y="60" fill="#e5eaf1"/><rect width="30" height="10" x="110" y="60" fill="#cfd6e0"/><rect width="130" height="10" x="140" y="60" fill="#e5eaf1"/><rect width="10" height="10" x="270" y="60" fill="#cfd6e0"/><rect width="10" height="10" x="280" y="60" fill="#adb1bf"/><rect width="10" height="10" x="30" y="70" fill="#adb1bf"/><rect width="40" height="10" x="40" y="70" fill="#cfd6e0"/><rect width="20" height="10" x="80" y="70" fill="#e5eaf1"/><rect width="80" height="10" x="100" y="70" fill="#cfd6e0"/><rect width="90" height="10" x="180" y="70" fill="#e5eaf1"/><rect width="10" height="10" x="270" y="70" fill="#cfd6e0"/><rect width="10" height="10" x="280" y="70" fill="#adb1bf"/><rect width="10" height="10" x="20" y="80" fill="#adb1bf"/><rect width="170" height="10" x="30" y="80" fill="#cfd6e0"/><rect width="80" height="10" x="200" y="80" fill="#e5eaf1"/><rect width="10" height="10" x="280" y="80" fill="#cfd6e0"/><rect width="10" height="10" x="290" y="80" fill="#adb1bf"/><rect width="10" height="10" x="10" y="90" fill="#adb1bf"/><rect width="30" height="10" x="20" y="90" fill="#cfd6e0"/><rect width="40" height="10" x="50" y="90" fill="#bac1ce"/><rect width="120" height="10" x="90" y="90" fill="#cfd6e0"/><rect width="80" height="10" x="210" y="90" fill="#e5eaf1"/><rect width="10" height="10" x="290" y="90" fill="#cfd6e0"/><rect width="10" height="10" x="300" y="90" fill="#adb1bf"/><rect width="10" height="10" x="10" y="100" fill="#adb1bf"/><rect width="20" height="10" x="20" y="100" fill="#cfd6e0"/><rect width="60" height="10" x="40" y="100" fill="#bac1ce"/><rect width="120" height="10" x="100" y="100" fill="#cfd6e0"/><rect width="70" height="10" x="220" y="100" fill="#e5eaf1"/><rect width="10" height="10" x="290" y="100" fill="#cfd6e0"/><rect width="10" height="10" x="300" y="100" fill="#adb1bf"/><rect width="10" height="10" x="10" y="110" fill="#adb1bf"/><rect width="10" height="10" x="20" y="110" fill="#cfd6e0"/><rect width="70" height="10" x="30" y="110" fill="#bac1ce"/><rect width="130" height="10" x="100" y="110" fill="#cfd6e0"/><rect width="60" height="10" x="230" y="110" fill="#e5eaf1"/><rect width="10" height="10" x="290" y="110" fill="#cfd6e0"/><rect width="10" height="10" x="300" y="110" fill="#adb1bf"/><rect width="10" height="10" x="0" y="120" fill="#adb1bf"/><rect width="20" height="10" x="10" y="120" fill="#cfd6e0"/><rect width="70" height="10" x="30" y="120" fill="#bac1ce"/><rect width="140" height="10" x="100" y="120" fill="#cfd6e0"/><rect width="60" height="10" x="240" y="120" fill="#e5eaf1"/><rect width="10" height="10" x="300" y="120" fill="#cfd6e0"/><rect width="10" height="10" x="310" y="120" fill="#adb1bf"/><rect width="10" height="10" x="0" y="130" fill="#adb1bf"/><rect width="20" height="10" x="10" y="130" fill="#cfd6e0"/><rect width="70" height="10" x="30" y="130" fill="#bac1ce"/><rect width="140" height="10" x="100" y="130" fill="#cfd6e0"/><rect width="60" height="10" x="240" y="130" fill="#e5eaf1"/><rect width="10" height="10" x="300" y="130" fill="#cfd6e0"/><rect width="10" height="10" x="310" y="130" fill="#adb1bf"/><rect width="10" height="10" x="0" y="140" fill="#adb1bf"/><rect width="30" height="10" x="10" y="140" fill="#cfd6e0"/><rect width="50" height="10" x="40" y="140" fill="#bac1ce"/><rect width="160" height="10" x="90" y="140" fill="#cfd6e0"/><rect width="50" height="10" x="250" y="140" fill="#e5eaf1"/><rect width="10" height="10" x="300" y="140" fill="#cfd6e0"/><rect width="10" height="10" x="310" y="140" fill="#adb1bf"/><rect width="10" height="10" x="0" y="150" fill="#adb1bf"/><rect width="40" height="10" x="10" y="150" fill="#cfd6e0"/><rect width="30" height="10" x="50" y="150" fill="#bac1ce"/><rect width="170" height="10" x="80" y="150" fill="#cfd6e0"/><rect width="50" height="10" x="250" y="150" fill="#e5eaf1"/><rect width="10" height="10" x="300" y="150" fill="#cfd6e0"/><rect width="10" height="10" x="310" y="150" fill="#adb1bf"/><rect width="10" height="10" x="0" y="160" fill="#adb1bf"/><rect width="30" height="10" x="10" y="160" fill="#cfd6e0"/><rect width="50" height="10" x="40" y="160" fill="#bac1ce"/><rect width="160" height="10" x="90" y="160" fill="#cfd6e0"/><rect width="50" height="10" x="250" y="160" fill="#e5eaf1"/><rect width="10" height="10" x="300" y="160" fill="#cfd6e0"/><rect width="10" height="10" x="310" y="160" fill="#adb1bf"/><rect width="10" height="10" x="0" y="170" fill="#adb1bf"/><rect width="10" height="10" x="10" y="170" fill="#e5eaf1"/><rect width="10" height="10" x="20" y="170" fill="#cfd6e0"/><rect width="70" height="10" x="30" y="170" fill="#bac1ce"/><rect width="150" height="10" x="100" y="170" fill="#cfd6e0"/><rect width="50" height="10" x="250" y="170" fill="#e5eaf1"/><rect width="10" height="10" x="300" y="170" fill="#cfd6e0"/><rect width="10" height="10" x="310" y="170" fill="#adb1bf"/><rect width="10" height="10" x="0" y="180" fill="#adb1bf"/><rect width="10" height="10" x="10" y="180" fill="#e5eaf1"/><rect width="10" height="10" x="20" y="180" fill="#cfd6e0"/><rect width="70" height="10" x="30" y="180" fill="#bac1ce"/><rect width="160" height="10" x="100" y="180" fill="#cfd6e0"/><rect width="30" height="10" x="260" y="180" fill="#e5eaf1"/><rect width="20" height="10" x="290" y="180" fill="#cfd6e0"/><rect width="10" height="10" x="310" y="180" fill="#adb1bf"/><rect width="10" height="10" x="0" y="190" fill="#adb1bf"/><rect width="10" height="10" x="10" y="190" fill="#e5eaf1"/><rect width="10" height="10" x="20" y="190" fill="#cfd6e0"/><rect width="80" height="10" x="30" y="190" fill="#bac1ce"/><rect width="200" height="10" x="110" y="190" fill="#cfd6e0"/><rect width="10" height="10" x="310" y="190" fill="#adb1bf"/><rect width="10" height="10" x="10" y="200" fill="#adb1bf"/><rect width="20" height="10" x="20" y="200" fill="#cfd6e0"/><rect width="80" height="10" x="40" y="200" fill="#bac1ce"/><rect width="130" height="10" x="120" y="200" fill="#cfd6e0"/><rect width="20" height="10" x="250" y="200" fill="#e5eaf1"/><rect width="30" height="10" x="270" y="200" fill="#cfd6e0"/><rect width="10" height="10" x="300" y="200" fill="#adb1bf"/><rect width="10" height="10" x="10" y="210" fill="#adb1bf"/><rect width="10" height="10" x="20" y="210" fill="#e5eaf1"/><rect width="10" height="10" x="30" y="210" fill="#cfd6e0"/><rect width="100" height="10" x="40" y="210" fill="#bac1ce"/><rect width="100" height="10" x="140" y="210" fill="#cfd6e0"/><rect width="40" height="10" x="240" y="210" fill="#e5eaf1"/><rect width="20" height="10" x="280" y="210" fill="#cfd6e0"/><rect width="10" height="10" x="300" y="210" fill="#adb1bf"/><rect width="10" height="10" x="10" y="220" fill="#adb1bf"/><rect width="10" height="10" x="20" y="220" fill="#e5eaf1"/><rect width="20" height="10" x="30" y="220" fill="#cfd6e0"/><rect width="170" height="10" x="50" y="220" fill="#bac1ce"/><rect width="20" height="10" x="220" y="220" fill="#cfd6e0"/><rect width="20" height="10" x="240" y="220" fill="#e5eaf1"/><rect width="10" height="10" x="260" y="220" fill="#f6f5f3"/><rect width="10" height="10" x="270" y="220" fill="#e5eaf1"/><rect width="20" height="10" x="280" y="220" fill="#cfd6e0"/><rect width="10" height="10" x="300" y="220" fill="#adb1bf"/><rect width="10" height="10" x="20" y="230" fill="#adb1bf"/><rect width="10" height="10" x="30" y="230" fill="#e5eaf1"/><rect width="10" height="10" x="40" y="230" fill="#cfd6e0"/><rect width="180" height="10" x="50" y="230" fill="#bac1ce"/><rect width="20" height="10" x="230" y="230" fill="#cfd6e0"/><rect width="20" height="10" x="250" y="230" fill="#e5eaf1"/><rect width="20" height="10" x="270" y="230" fill="#cfd6e0"/><rect width="10" height="10" x="290" y="230" fill="#adb1bf"/><rect width="10" height="10" x="30" y="240" fill="#adb1bf"/><rect width="10" height="10" x="40" y="240" fill="#e5eaf1"/><rect width="10" height="10" x="50" y="240" fill="#cfd6e0"/><rect width="180" height="10" x="60" y="240" fill="#bac1ce"/><rect width="40" height="10" x="240" y="240" fill="#cfd6e0"/><rect width="10" height="10" x="280" y="240" fill="#adb1bf"/><rect width="10" height="10" x="30" y="250" fill="#adb1bf"/><rect width="10" height="10" x="40" y="250" fill="#e5eaf1"/><rect width="20" height="10" x="50" y="250" fill="#cfd6e0"/><rect width="170" height="10" x="70" y="250" fill="#bac1ce"/><rect width="40" height="10" x="240" y="250" fill="#cfd6e0"/><rect width="10" height="10" x="280" y="250" fill="#adb1bf"/><rect width="10" height="10" x="40" y="260" fill="#adb1bf"/><rect width="10" height="10" x="50" y="260" fill="#e5eaf1"/><rect width="20" height="10" x="60" y="260" fill="#cfd6e0"/><rect width="160" height="10" x="80" y="260" fill="#bac1ce"/><rect width="30" height="10" x="240" y="260" fill="#cfd6e0"/><rect width="10" height="10" x="270" y="260" fill="#adb1bf"/><rect width="10" height="10" x="50" y="270" fill="#adb1bf"/><rect width="20" height="10" x="60" y="270" fill="#e5eaf1"/><rect width="20" height="10" x="80" y="270" fill="#cfd6e0"/><rect width="130" height="10" x="100" y="270" fill="#bac1ce"/><rect width="20" height="10" x="230" y="270" fill="#cfd6e0"/><rect width="10" height="10" x="250" y="270" fill="#e5eaf1"/><rect width="10" height="10" x="260" y="270" fill="#adb1bf"/><rect width="20" height="10" x="60" y="280" fill="#adb1bf"/><rect width="10" height="10" x="80" y="280" fill="#e5eaf1"/><rect width="30" height="10" x="90" y="280" fill="#cfd6e0"/><rect width="90" height="10" x="120" y="280" fill="#bac1ce"/><rect width="30" height="10" x="210" y="280" fill="#cfd6e0"/><rect width="20" height="10" x="240" y="280" fill="#adb1bf"/><rect width="10" height="10" x="80" y="290" fill="#adb1bf"/><rect width="20" height="10" x="90" y="290" fill="#e5eaf1"/><rect width="110" height="10" x="110" y="290" fill="#cfd6e0"/><rect width="10" height="10" x="220" y="290" fill="#e5eaf1"/><rect width="10" height="10" x="230" y="290" fill="#adb1bf"/><rect width="30" height="10" x="90" y="300" fill="#adb1bf"/><rect width="30" height="10" x="120" y="300" fill="#e5eaf1"/><rect width="30" height="10" x="150" y="300" fill="#cfd6e0"/><rect width="20" height="10" x="180" y="300" fill="#e5eaf1"/><rect width="30" height="10" x="200" y="300" fill="#adb1bf"/><rect width="80" height="10" x="120" y="310" fill="#adb1bf"/><rect width="10" height="10" x="150" y="60" fill="#181425"/><rect width="10" height="10" x="240" y="60" fill="#181425"/><rect width="10" height="10" x="140" y="70" fill="#181425"/><rect width="10" height="10" x="150" y="70" fill="#5a6988"/><rect width="10" height="10" x="160" y="70" fill="#181425"/><rect width="10" height="10" x="230" y="70" fill="#181425"/><rect width="10" height="10" x="240" y="70" fill="#ead4aa"/><rect width="10" height="10" x="250" y="70" fill="#181425"/><rect width="10" height="10" x="130" y="80" fill="#181425"/><rect width="10" height="10" x="140" y="80" fill="#5a6988"/><rect width="10" height="10" x="150" y="80" fill="#f6757a"/><rect width="10" height="10" x="160" y="80" fill="#5a6988"/><rect width="10" height="10" x="170" y="80" fill="#181425"/><rect width="10" height="10" x="220" y="80" fill="#181425"/><rect width="10" height="10" x="230" y="80" fill="#ead4aa"/><rect width="10" height="10" x="240" y="80" fill="#f6757a"/><rect width="10" height="10" x="250" y="80" fill="#181425"/><rect width="10" height="10" x="120" y="90" fill="#181425"/><rect width="20" height="10" x="130" y="90" fill="#5a6988"/><rect width="10" height="10" x="150" y="90" fill="#f6757a"/><rect width="10" height="10" x="160" y="90" fill="#5a6988"/><rect width="60" height="10" x="170" y="90" fill="#181425"/><rect width="10" height="10" x="230" y="90" fill="#ead4aa"/><rect width="10" height="10" x="240" y="90" fill="#f6757a"/><rect width="10" height="10" x="250" y="90" fill="#181425"/><rect width="10" height="10" x="110" y="100" fill="#181425"/><rect width="10" height="10" x="120" y="100" fill="#5a6988"/><rect width="10" height="10" x="130" y="100" fill="#3a4466"/><rect width="40" height="10" x="140" y="100" fill="#5a6988"/><rect width="10" height="10" x="180" y="100" fill="#3a4466"/><rect width="10" height="10" x="190" y="100" fill="#5a6988"/><rect width="20" height="10" x="200" y="100" fill="#e8b796"/><rect width="30" height="10" x="220" y="100" fill="#ead4aa"/><rect width="10" height="10" x="250" y="100" fill="#181425"/><rect width="10" height="10" x="100" y="110" fill="#181425"/><rect width="20" height="10" x="110" y="110" fill="#5a6988"/><rect width="20" height="10" x="130" y="110" fill="#3a4466"/><rect width="50" height="10" x="150" y="110" fill="#5a6988"/><rect width="50" height="10" x="200" y="110" fill="#ead4aa"/><rect width="10" height="10" x="250" y="110" fill="#e8b796"/><rect width="10" height="10" x="260" y="110" fill="#181425"/><rect width="10" height="10" x="100" y="120" fill="#181425"/><rect width="10" height="10" x="110" y="120" fill="#5a6988"/><rect width="10" height="10" x="120" y="120" fill="#3a4466"/><rect width="10" height="10" x="130" y="120" fill="#5a6988"/><rect width="10" height="10" x="140" y="120" fill="#3a4466"/><rect width="50" height="10" x="150" y="120" fill="#5a6988"/><rect width="60" height="10" x="200" y="120" fill="#ead4aa"/><rect width="10" height="10" x="260" y="120" fill="#181425"/><rect width="10" height="10" x="100" y="130" fill="#181425"/><rect width="20" height="10" x="110" y="130" fill="#3a4466"/><rect width="70" height="10" x="130" y="130" fill="#5a6988"/><rect width="60" height="10" x="200" y="130" fill="#ead4aa"/><rect width="10" height="10" x="260" y="130" fill="#e8b796"/><rect width="10" height="10" x="270" y="130" fill="#181425"/><rect width="10" height="10" x="90" y="140" fill="#181425"/><rect width="10" height="10" x="100" y="140" fill="#5a6988"/><rect width="10" height="10" x="110" y="140" fill="#3a4466"/><rect width="10" height="10" x="120" y="140" fill="#5a6988"/><rect width="10" height="10" x="130" y="140" fill="#3a4466"/><rect width="10" height="10" x="140" y="140" fill="#5a6988"/><rect width="10" height="10" x="150" y="140" fill="#3a4466"/><rect width="50" height="10" x="160" y="140" fill="#5a6988"/><rect width="70" height="10" x="210" y="140" fill="#ead4aa"/><rect width="10" height="10" x="280" y="140" fill="#181425"/><rect width="10" height="10" x="90" y="150" fill="#181425"/><rect width="30" height="10" x="100" y="150" fill="#5a6988"/><rect width="30" height="10" x="130" y="150" fill="#3a4466"/><rect width="60" height="10" x="160" y="150" fill="#5a6988"/><rect width="10" height="10" x="220" y="150" fill="#e8b796"/><rect width="50" height="10" x="230" y="150" fill="#ead4aa"/><rect width="10" height="10" x="280" y="150" fill="#181425"/><rect width="10" height="10" x="80" y="160" fill="#181425"/><rect width="10" height="10" x="90" y="160" fill="#5a6988"/><rect width="10" height="10" x="100" y="160" fill="#3a4466"/><rect width="10" height="10" x="110" y="160" fill="#5a6988"/><rect width="10" height="10" x="120" y="160" fill="#3a4466"/><rect width="10" height="10" x="130" y="160" fill="#5a6988"/><rect width="10" height="10" x="140" y="160" fill="#3a4466"/><rect width="80" height="10" x="150" y="160" fill="#5a6988"/><rect width="50" height="10" x="230" y="160" fill="#ead4aa"/><rect width="10" height="10" x="280" y="160" fill="#181425"/><rect width="10" height="10" x="70" y="170" fill="#181425"/><rect width="20" height="10" x="80" y="170" fill="#5a6988"/><rect width="30" height="10" x="100" y="170" fill="#3a4466"/><rect width="10" height="10" x="130" y="170" fill="#181425"/><rect width="90" height="10" x="140" y="170" fill="#5a6988"/><rect width="10" height="10" x="230" y="170" fill="#e8b796"/><rect width="30" height="10" x="240" y="170" fill="#ead4aa"/><rect width="10" height="10" x="270" y="170" fill="#e8b796"/><rect width="10" height="10" x="280" y="170" fill="#181425"/><rect width="10" height="10" x="70" y="180" fill="#181425"/><rect width="10" height="10" x="80" y="180" fill="#5a6988"/><rect width="10" height="10" x="90" y="180" fill="#3a4466"/><rect width="10" height="10" x="100" y="180" fill="#5a6988"/><rect width="10" height="10" x="110" y="180" fill="#3a4466"/><rect width="10" height="10" x="120" y="180" fill="#5a6988"/><rect width="10" height="10" x="130" y="180" fill="#3a4466"/><rect width="10" height="10" x="140" y="180" fill="#181425"/><rect width="10" height="10" x="150" y="180" fill="#3a4466"/><rect width="70" height="10" x="160" y="180" fill="#5a6988"/><rect width="40" height="10" x="230" y="180" fill="#e8b796"/><rect width="10" height="10" x="270" y="180" fill="#181425"/><rect width="10" height="10" x="70" y="190" fill="#181425"/><rect width="20" height="10" x="80" y="190" fill="#3a4466"/><rect width="30" height="10" x="100" y="190" fill="#5a6988"/><rect width="10" height="10" x="130" y="190" fill="#3a4466"/><rect width="10" height="10" x="140" y="190" fill="#5a6988"/><rect width="120" height="10" x="150" y="190" fill="#181425"/><rect width="10" height="10" x="70" y="200" fill="#181425"/><rect width="10" height="10" x="80" y="200" fill="#3a4466"/><rect width="10" height="10" x="90" y="200" fill="#5a6988"/><rect width="10" height="10" x="100" y="200" fill="#3a4466"/><rect width="10" height="10" x="110" y="200" fill="#5a6988"/><rect width="10" height="10" x="120" y="200" fill="#3a4466"/><rect width="30" height="10" x="130" y="200" fill="#5a6988"/><rect width="20" height="10" x="160" y="200" fill="#e8b796"/><rect width="10" height="10" x="180" y="200" fill="#181425"/><rect width="20" height="10" x="190" y="200" fill="#e8b796"/><rect width="10" height="10" x="210" y="200" fill="#5a6988"/><rect width="10" height="10" x="220" y="200" fill="#181425"/><rect width="10" height="10" x="70" y="210" fill="#181425"/><rect width="20" height="10" x="80" y="210" fill="#5a6988"/><rect width="30" height="10" x="100" y="210" fill="#3a4466"/><rect width="20" height="10" x="130" y="210" fill="#5a6988"/><rect width="20" height="10" x="150" y="210" fill="#e8b796"/><rect width="10" height="10" x="170" y="210" fill="#181425"/><rect width="20" height="10" x="180" y="210" fill="#e8b796"/><rect width="10" height="10" x="200" y="210" fill="#5a6988"/><rect width="10" height="10" x="210" y="210" fill="#181425"/><rect width="10" height="10" x="80" y="220" fill="#181425"/><rect width="20" height="10" x="90" y="220" fill="#5a6988"/><rect width="10" height="10" x="110" y="220" fill="#3a4466"/><rect width="10" height="10" x="120" y="220" fill="#5a6988"/><rect width="40" height="10" x="130" y="220" fill="#181425"/><rect width="10" height="10" x="170" y="220" fill="#5a6988"/><rect width="30" height="10" x="180" y="220" fill="#181425"/><rect width="30" height="10" x="90" y="230" fill="#181425"/><rect width="30" height="10" x="120" y="230" fill="#5a6988"/><rect width="10" height="10" x="150" y="230" fill="#181425"/><rect width="30" height="10" x="160" y="230" fill="#5a6988"/><rect width="10" height="10" x="190" y="230" fill="#181425"/><rect width="10" height="10" x="100" y="240" fill="#181425"/><rect width="10" height="10" x="110" y="240" fill="#e8b796"/><rect width="30" height="10" x="120" y="240" fill="#ead4aa"/><rect width="10" height="10" x="150" y="240" fill="#181425"/><rect width="10" height="10" x="160" y="240" fill="#e8b796"/><rect width="20" height="10" x="170" y="240" fill="#ead4aa"/><rect width="10" height="10" x="190" y="240" fill="#181425"/><rect width="10" height="10" x="100" y="250" fill="#181425"/><rect width="30" height="10" x="110" y="250" fill="#ead4aa"/><rect width="10" height="10" x="140" y="250" fill="#181425"/><rect width="10" height="10" x="150" y="250" fill="#e8b796"/><rect width="20" height="10" x="160" y="250" fill="#ead4aa"/><rect width="10" height="10" x="180" y="250" fill="#181425"/><rect width="30" height="10" x="110" y="260" fill="#181425"/><rect width="30" height="10" x="150" y="260" fill="#181425"/><rect width="10" height="10" x="60" y="190" fill="#181425"/><rect width="10" height="10" x="50" y="200" fill="#181425"/><rect width="10" height="10" x="60" y="200" fill="#0099db"/><rect width="10" height="10" x="70" y="200" fill="#181425"/><rect width="10" height="10" x="40" y="210" fill="#181425"/><rect width="20" height="10" x="50" y="210" fill="#0099db"/><rect width="10" height="10" x="70" y="210" fill="#181425"/><rect width="10" height="10" x="40" y="220" fill="#181425"/><rect width="30" height="10" x="50" y="220" fill="#0099db"/><rect width="10" height="10" x="80" y="220" fill="#181425"/><rect width="10" height="10" x="40" y="230" fill="#181425"/><rect width="40" height="10" x="50" y="230" fill="#0099db"/><rect width="10" height="10" x="90" y="230" fill="#181425"/><rect width="10" height="10" x="50" y="240" fill="#181425"/><rect width="40" height="10" x="60" y="240" fill="#0099db"/><rect width="10" height="10" x="100" y="240" fill="#181425"/><rect width="10" height="10" x="50" y="250" fill="#181425"/><rect width="40" height="10" x="60" y="250" fill="#0099db"/><rect width="10" height="10" x="100" y="250" fill="#181425"/><rect width="10" height="10" x="60" y="260" fill="#181425"/><rect width="40" height="10" x="70" y="260" fill="#0099db"/><rect width="10" height="10" x="110" y="260" fill="#181425"/><rect width="20" height="10" x="70" y="270" fill="#181425"/><rect width="30" height="10" x="90" y="270" fill="#0099db"/><rect width="10" height="10" x="120" y="270" fill="#181425"/><rect width="30" height="10" x="90" y="280" fill="#181425"/><rect width="10" height="10" x="160" y="140" fill="#181425"/><rect width="10" height="10" x="190" y="140" fill="#181425"/><rect width="10" height="10" x="230" y="140" fill="#181425"/><rect width="10" height="10" x="260" y="140" fill="#181425"/><rect width="20" height="10" x="170" y="150" fill="#181425"/><rect width="20" height="10" x="240" y="150" fill="#181425"/><rect width="10" height="10" x="210" y="170" fill="#181425"/><rect width="150" height="10" x="140" y="130" fill="#181425"/><rect width="20" height="10" x="160" y="140" fill="#181425"/><rect width="10" height="10" x="180" y="140" fill="#b55088"/><rect width="20" height="10" x="190" y="140" fill="#f6757a"/><rect width="30" height="10" x="210" y="140" fill="#181425"/><rect width="10" height="10" x="240" y="140" fill="#b55088"/><rect width="20" height="10" x="250" y="140" fill="#f6757a"/><rect width="20" height="10" x="270" y="140" fill="#181425"/><rect width="10" height="10" x="170" y="150" fill="#181425"/><rect width="10" height="10" x="180" y="150" fill="#f6757a"/><rect width="20" height="10" x="190" y="150" fill="#b55088"/><rect width="10" height="10" x="210" y="150" fill="#181425"/><rect width="10" height="10" x="230" y="150" fill="#181425"/><rect width="10" height="10" x="240" y="150" fill="#f6757a"/><rect width="20" height="10" x="250" y="150" fill="#b55088"/><rect width="10" height="10" x="270" y="150" fill="#181425"/><rect width="30" height="10" x="180" y="160" fill="#181425"/><rect width="30" height="10" x="240" y="160" fill="#181425"/></svg>
