<?xml version="1.0" encoding="utf-8"?>
<!-- Generator: Adobe Illustrator 25.2.3, SVG Export Plug-In . SVG Version: 6.00 Build 0)  -->
<svg version="1.1" xmlns="http://www.w3.org/2000/svg" xmlns:xlink="http://www.w3.org/1999/xlink" x="0px" y="0px"
	 viewBox="0 0 800 800" style="enable-background:new 0 0 800 800;" xml:space="preserve">
<style type="text/css">
	.st0{fill:transparent;}
	.brand{fill:#3EAEF4;}
</style>
<g id="Слой_2">
	<g>
		<path class="st0" d="M0,0v800h800V0H0z"/>
	</g>
</g>
<g id="Слой_3">
	<g>
		<g>
			<rect class="brand" x="166.67" y="566.67" width="466.67" height="66.67"/>
			<polygon class="brand" points="566.67,166.67 566.67,300 500,300 500,233.33 433.33,233.33 433.33,166.67 366.67,166.67 366.67,300 300,300 
				300,233.33 233.33,233.33 233.33,166.67 166.67,166.67 166.67,500 233.33,500 233.33,366.67 300,366.67 300,433.33 
				366.67,433.33 366.67,500 433.33,500 433.33,366.67 500,366.67 500,433.33 566.67,433.33 566.67,500 633.33,500 633.33,166.67 
							"/>
		</g>
	</g>
</g>
</svg>
